<svg width="270" height="120" fill="none" xmlns="http://www.w3.org/2000/svg"><rect width="270" height="120" rx="4" fill="#F5F4FA"/><g clip-path="url(#a)"><path d="M168.461 58.4715C168.458 39.9819 153.466 24.9963 134.975 25c-18.489.0037-33.475 14.9963-33.471 33.4859.003 14.5643 9.421 27.4554 23.296 31.8854.132.0417.27.063.408.0625a1.476 1.476 0 0 0 .749-.2051 1.394 1.394 0 0 0 .62-.7797l8.455-26.7969c2.311-.0117 4.175-1.8953 4.162-4.2062-.011-2.3114-1.894-4.1753-4.206-4.1635a4.1313 4.1313 0 0 0-1.794.4187l-11.169-11.1709c-.554-.5351-1.437-.5196-1.972.0342-.523.541-.523 1.3976 0 1.9386l11.163 11.1762c-.856 1.7485-.367 3.8591 1.174 5.0511l-8.056 25.5344c-15.92-5.8645-24.072-23.5242-18.208-39.4444 5.865-15.9203 23.524-24.0721 39.445-18.2076 15.92 5.8644 24.072 23.5247 18.207 39.4444a30.7205 30.7205 0 0 1-16.323 17.4418l-.871-4.1c-.159-.7535-.9-1.2353-1.653-1.0756a1.4033 1.4033 0 0 0-.64.3242l-8.393 7.4934c-.576.5121-.627 1.3938-.115 1.9696.167.1869.381.3257.62.4021l10.716 3.4201c.733.2355 1.519-.1677 1.754-.9015a1.395 1.395 0 0 0 .037-.7167l-.855-4.023c12.39-5.2237 20.435-17.3735 20.406-30.82Zm-33.478-1.3949c.77 0 1.395.6248 1.395 1.3949 0 .7707-.625 1.395-1.395 1.395-.771 0-1.395-.6243-1.395-1.395 0-.7701.624-1.3949 1.395-1.3949Zm4.594 32.515 4.778-4.2618 1.319 6.2132-6.097-1.9514Z" fill="#212121"/><path d="M133.588 31.9673v2.7899c0 .7706.624 1.395 1.395 1.395.77 0 1.395-.6244 1.395-1.395v-2.7899c0-.7701-.625-1.395-1.395-1.395-.771 0-1.395.6249-1.395 1.395ZM108.479 57.0765c-.771 0-1.395.6249-1.395 1.395 0 .7706.624 1.395 1.395 1.395h2.79c.77 0 1.395-.6244 1.395-1.395 0-.7701-.625-1.395-1.395-1.395h-2.79ZM161.487 59.8665c.77 0 1.395-.6244 1.395-1.395 0-.7701-.625-1.395-1.395-1.395h-2.79c-.77 0-1.395.6249-1.395 1.395 0 .7706.625 1.395 1.395 1.395h2.79Z" fill="#2196F3"/></g><defs><clipPath id="a"><path fill="#fff" transform="translate(100 25)" d="M0 0h70v70H0z"/></clipPath></defs></svg>