<svg width="270" height="120" fill="none" xmlns="http://www.w3.org/2000/svg"><rect width="270" height="120" rx="4" fill="#F5F4FA"/><g clip-path="url(#a)"><path d="M132.65 57.7351h2.332v10.4945h-2.332V57.7351ZM141.978 62.3993h2.332v5.8303h-2.332v-5.8303ZM123.321 65.8975h2.332v2.3321h-2.332v-2.3321ZM116.325 64.7314h2.332v3.4981h-2.332v-3.4981Z" fill="#2196F3"/><path d="M103.498 86.8865h55.971c1.932 0 3.498-1.5663 3.498-3.4982v-4.6642c0-1.9318-1.566-3.4982-3.498-3.4982h-1.166v-29.079l6.623-6.2744c1.537.7578 3.398.2977 4.404-1.0909 1.007-1.3881.866-3.2995-.333-4.5248-1.199-1.2252-3.107-1.408-4.517-.4327-1.41.9759-1.911 2.8258-1.187 4.3796l-4.99 4.7308v-2.6902c0-1.9319-1.567-3.4982-3.498-3.4982h-46.643c-1.931 0-3.498 1.5663-3.498 3.4982v34.9816h-1.166c-1.932 0-3.498 1.5664-3.498 3.4982v4.6642c0 1.9319 1.566 3.4982 3.498 3.4982ZM166.465 35.58c.644 0 1.166.5221 1.166 1.1661 0 .6439-.522 1.166-1.166 1.166-.644 0-1.166-.5221-1.166-1.166 0-.644.522-1.1661 1.166-1.1661Zm-59.469 4.6643c0-.644.522-1.1661 1.166-1.1661h46.643c.644 0 1.166.5221 1.166 1.1661v4.8971l-2.332 2.2159v-4.7809c0-.644-.523-1.1661-1.166-1.1661h-41.978c-.644 0-1.167.5221-1.167 1.1661v29.1514c0 .6439.523 1.166 1.167 1.166h41.978c.643 0 1.166-.5221 1.166-1.166V50.5651l2.332-2.2097v26.8705h-48.975V40.2443Zm10.495 15.1587c-1.578-.0046-2.963 1.0465-3.383 2.5673-.419 1.5207.23 3.1337 1.587 3.9388 1.356.8051 3.084.603 4.218-.4942l4.053 2.0338a1.1658 1.1658 0 0 0 1.392-.2682l8.616-9.6934 8.47 6.3467c.455.3405 1.089.304 1.501-.086l7.361-6.973v17.7869h-39.645V43.7424h39.645v5.8195l-8.25 7.8128-8.541-6.4031c-.485-.3632-1.167-.2949-1.571.1578l-8.734 9.8277-3.265-1.6329a3.34 3.34 0 0 0 .044-.423c0-1.9319-1.566-3.4982-3.498-3.4982Zm1.166 3.4982c0 .6439-.522 1.166-1.166 1.166-.644 0-1.166-.5221-1.166-1.166 0-.644.522-1.1661 1.166-1.1661.644 0 1.166.5221 1.166 1.1661Zm6.996 18.6569h11.661v1.166c0 .644-.522 1.1661-1.166 1.1661h-9.329c-.644 0-1.166-.5221-1.166-1.1661v-1.166Zm-23.321 1.166c0-.6439.522-1.166 1.166-1.166h19.823v1.166c0 1.9319 1.566 3.4982 3.498 3.4982h9.329c1.932 0 3.498-1.5663 3.498-3.4982v-1.166h19.823c.644 0 1.166.5221 1.166 1.166v4.6642c0 .644-.522 1.1661-1.166 1.1661h-55.971c-.644 0-1.166-.5221-1.166-1.1661v-4.6642Z" fill="#212121"/></g><defs><clipPath id="a"><path fill="#fff" transform="translate(100 25)" d="M0 0h70v70H0z"/></clipPath></defs></svg>