<svg width="270" height="120" fill="none" xmlns="http://www.w3.org/2000/svg"><rect width="270" height="120" rx="4" fill="#F5F4FA"/><path d="M169.943 34.8964a1.1661 1.1661 0 0 0-.941-.7934l-4.179-.6079-1.87-3.787c-.392-.7981-1.7-.7981-2.092 0l-1.87 3.787-4.18.608a1.1698 1.1698 0 0 0-.942.7934c-.137.4223-.024.8866.295 1.1959l3.025 2.9483-.714 4.1627a1.171 1.171 0 0 0 .463 1.1411 1.162 1.162 0 0 0 1.23.0886l3.738-1.9659 3.738 1.9659c.171.0898.358.1341.544.1341.241 0 .483-.0747.686-.2229.359-.2612.539-.7035.463-1.141l-.714-4.1628 3.025-2.9482c.317-.3104.432-.7736.295-1.1959Zm-5.387 2.9027a1.1653 1.1653 0 0 0-.335 1.0325l.417 2.4372-2.188-1.1504a1.1637 1.1637 0 0 0-.544-.1341c-.186 0-.372.0443-.544.1341l-2.188 1.1504.417-2.4372c.066-.378-.06-.7641-.335-1.0325l-1.772-1.7267 2.448-.3558c.38-.0549.708-.294.879-.6383l1.094-2.2166 1.094 2.2166c.171.3442.498.5834.879.6383l2.447.3558-1.769 1.7267ZM157.167 69.8923h-2.333v2.3334h2.333v-2.3334ZM157.167 74.5591h-2.333v2.3334h2.333v-2.3334ZM159.5 72.2257h-2.333v2.3334h2.333v-2.3334ZM154.834 72.2257H152.5v2.3334h2.334v-2.3334ZM149 82.7259h-2.333v2.3334H149v-2.3334ZM149 87.3926h-2.333v2.3334H149v-2.3334ZM151.334 85.0593H149v2.3334h2.334v-2.3334ZM146.667 85.0593h-2.334v2.3334h2.334v-2.3334ZM135 78.0592h-2.333v2.3334H135v-2.3334ZM135 82.7259h-2.333v2.3334H135v-2.3334ZM137.333 80.3925H135v2.3334h2.333v-2.3334ZM132.667 80.3925h-2.334v2.3334h2.334v-2.3334ZM112.833 38.3918H110.5v2.3334h2.333v-2.3334ZM112.833 43.0587H110.5v2.3334h2.333v-2.3334ZM115.166 40.7252h-2.333v2.3334h2.333v-2.3334ZM110.5 40.7252h-2.334v2.3334h2.334v-2.3334Z" fill="#2196F3"/><path d="M154.064 55.9738c-.629-.8482-1.552-1.3941-2.6-1.5412-1.052-.1493-2.091.1271-2.931.77l-2.738 2.0988-.001.0012-4.151 3.0999-2.971-1.1831c5.297-2.3765 8.999-7.6744 8.999-13.8252 0-8.3628-6.831-15.1668-15.227-15.1668-8.397 0-15.228 6.804-15.228 15.1668 0 3.0311.907 5.8497 2.45 8.2216l-6.046-.0525h-.01c-.019 0-.034.0093-.051.0105-.116.0047-.229.028-.34.0677-.028.0105-.057.0164-.084.0291-.014.0059-.028.007-.042.014l-7.072 3.4918c-.001 0-.003 0-.003.0011l-4.141 1.9918a.8628.8628 0 0 0-.138.0769c-1.651 1.099-2.2133 3.2574-1.309 5.0214.482.938 1.302 1.6287 2.31 1.9448.389.1213.785.1809 1.18.1809.633 0 1.261-.1552 1.836-.462l3.036-1.6146 4.952-2.5574 2.968-.0175-11.904 11.8466c-.001.0012-.002.0012-.003.0023l-2.929 2.9167c-.691.6884-1.072 1.6018-1.072 2.5761 0 .973.381 1.8888 1.072 2.5784.711.707 1.646 1.0616 2.58 1.0616.936 0 1.869-.3546 2.582-1.0616l2.875-2.8631 3.808-2.8432 1.97 1.9623-3.853 3.8372c-.002.0013-.003.0013-.004.0024l-2.928 2.9166c-.692.6884-1.073 1.6018-1.073 2.5761 0 .9731.381 1.8888 1.073 2.5784.71.707 1.646 1.0617 2.58 1.0617.935 0 1.871-.3547 2.582-1.0617l2.93-2.9166 4.686-4.6667c.001-.0013.001-.0024.003-.0036l2.208-2.1875-.008-.0082c.014-.014.034-.0188.048-.0338l11.3-12.3773 7.593 1.0803c.055.0082.11.0117.165.0117.141 0 .277-.0338.409-.084.039-.0139.072-.0327.109-.0513.042-.021.086-.0326.126-.0594l7.029-4.6667c.026-.0175.04-.0456.064-.0642.028-.0221.063-.0314.089-.056l2.781-2.6052c1.447-1.356 1.647-3.5773.464-5.1663Zm-49.404 7.8984c-.379.203-.809.2437-1.221.1132-.409-.1272-.74-.4061-.934-.7829-.352-.6861-.148-1.5214.469-1.9729l2.874-1.3825.692 2.0218.29.8493-2.17 1.154Zm7.65-3.9982-3.387 1.7501-.558-1.6334-.402-1.1738 4.434-2.1887-.087 3.2458Zm33.03-14.4821c0 2.009-.479 3.9038-1.31 5.5988l-9.147-4.1545c-.095-1.2541-.746-2.352-1.724-3.0357l3.202-10.632c5.202 1.6545 8.979 6.5067 8.979 12.2234Zm-25.788 0c0-7.076 5.784-12.8336 12.894-12.8336.553 0 1.094.0466 1.63.1143l-3.133 10.3987c-.042-.0012-.081-.0128-.124-.0128-2.259 0-4.097 1.8316-4.097 4.0834 0 2.2517 1.838 4.0835 4.097 4.0835 1.519 0 2.831-.8388 3.539-2.0663l8.449 3.8384c-2.351 3.164-6.113 5.228-10.361 5.228-7.11 0-12.894-5.7576-12.894-12.8336Zm13.029 1.75c0 .9649-.791 1.75-1.762 1.75-.972 0-1.763-.7851-1.763-1.75 0-.9648.791-1.75 1.763-1.75.971 0 1.762.7852 1.762 1.75Zm-27.189 32.8655c-.517.5122-1.354.5111-1.869.0013-.249-.2486-.385-.5763-.385-.9252 0-.3477.136-.6756.385-.9217l2.104-2.0966 1.862 1.8539-2.097 2.0883Zm7.03 8.1669c-.517.5122-1.354.5134-1.87.0012-.249-.2485-.385-.5762-.385-.9252 0-.3476.136-.6755.385-.9216l2.106-2.0977.881.8763.982.9776-2.099 2.0894Zm7.616-7.5881c-.001.0011-.002.0011-.003.0023l-3.861 3.85-.881-.8762-.982-.9777 3.857-3.8395v-.0011c.001-.0012.002-.0012.004-.0023.087-.0875.142-.1925.196-.2963.015-.0304.044-.0561.057-.0875.036-.0898.042-.1866.056-.2812.007-.0538.03-.1038.03-.1588 0-.0782-.028-.1539-.044-.231-.014-.07-.014-.1413-.041-.2088-.044-.1097-.12-.2065-.199-.3011-.023-.0257-.031-.0584-.055-.0828h-.002c-.001-.0011-.001-.0036-.002-.0047l-3.515-3.5c-.037-.0374-.085-.0525-.127-.084-.062-.0478-.121-.0921-.19-.126-.067-.0327-.135-.0525-.205-.0713-.074-.021-.147-.0373-.225-.0432-.071-.0046-.137.0024-.208.0106-.079.0093-.152.0198-.228.0443-.074.0233-.139.0594-.206.098-.044.0245-.093.0327-.133.063l-3.88 2.8958-1.97-1.9624 5.248-5.2197 9.538 9.3814-2.029 2.0102Zm14.916-15.349c-.033-.0047-.065.0082-.099.0059a1.1513 1.1513 0 0 0-.252.0151c-.066.0117-.129.0245-.192.0467-.075.0257-.142.0607-.211.1026a1.0925 1.0925 0 0 0-.182.1342c-.028.0244-.062.0362-.088.0641L123.653 76.862l-9.468-9.3114 6.197-6.1647c.457-.455.459-1.1936.004-1.6509-.23-.2298-.532-.343-.834-.3418v-.0011l-4.854.0291.061-3.5163 6.79.0584c2.768 2.8304 6.627 4.5956 10.897 4.5956.957 0 1.89-.0991 2.799-.2684.087.07.174.1412.283.1855l5.272 2.1001.333 1.6589.39 1.9367-6.569-.9345Zm8.84.3897-.684-3.408 3.164-2.3625.828 1.099 1.243 1.6496-4.551 3.0219Zm8.211-6.1928-1.832 1.7173-2.037-2.7043 1.818-1.3942c.34-.2612.768-.3675 1.188-.3126.422.0594.796.28 1.05.6218.474.6382.393 1.5284-.187 2.072Z" fill="#212121"/><path d="m129.755 65.5651-4.688-4.6667c-.454-.4538-1.191-.4538-1.646 0l-4.687 4.6667a1.1735 1.1735 0 0 0-.343.8271c0 .3104.122.6079.343.8272l4.687 4.6667c.227.2263.526.3395.823.3395.298 0 .596-.1132.823-.3395l4.688-4.6667c.219-.2193.344-.5168.344-.8272 0-.3103-.124-.6078-.344-.8271Zm-5.511 3.8477-3.033-3.0206 3.033-3.0205 3.035 3.0205-3.035 3.0206ZM137.547 36.0923l-.564 2.2657c.155.0386 3.801.9882 3.801 4.7006h2.334c0-4.4125-3.644-6.4868-5.571-6.9663ZM143.118 45.3919h-2.334v2.3334h2.334v-2.3334Z" fill="#212121"/></svg>